<?xml version="1.0" encoding="UTF-8" standalone="no"?>
<svg width="30px" height="30px" viewBox="0 0 30 30" version="1.1" xmlns="http://www.w3.org/2000/svg" xmlns:xlink="http://www.w3.org/1999/xlink" xmlns:sketch="http://www.bohemiancoding.com/sketch/ns">
    <!-- Generator: Sketch 3.4.2 (15855) - http://www.bohemiancoding.com/sketch -->
    <title>Untitled 3</title>
    <desc>Created with Sketch.</desc>
    <defs></defs>
    <g id="Page-1" stroke="none" stroke-width="1" fill="none" fill-rule="evenodd" sketch:type="MSPage">
        <g id="settings48" sketch:type="MSLayerGroup" fill="#000000">
            <g id="Group" sketch:type="MSShapeGroup">
                <path d="M1.96784566,10.8533119 C2.12540193,11.3935048 2.34405145,11.9144051 2.62057878,12.4031511 L1.83279743,13.3967203 C1.5755627,13.7214791 1.60450161,14.1845016 1.89389068,14.4771061 L3.25080386,15.8340193 C3.54340836,16.1266238 4.00643087,16.1523151 4.33118971,15.8950804 L5.31832797,15.1137299 C5.82636656,15.4063666 6.36655949,15.6346302 6.92926045,15.7954019 L7.07717042,17.0654984 C7.12540193,17.477074 7.47266881,17.7857556 7.88424437,17.7857556 L9.80385852,17.7857556 C10.2154341,17.7857556 10.562701,17.4770418 10.6109325,17.0654984 L10.7524116,15.840418 C11.3569132,15.6828617 11.9356913,15.448135 12.4790997,15.1426688 L13.4340836,15.8982958 C13.7588424,16.1555305 14.221865,16.1265916 14.5144695,15.8372026 L15.8713826,14.4802894 C16.1639871,14.1876849 16.1897106,13.7246624 15.9324759,13.3999035 L15.1897106,12.4577814 C15.4983923,11.9239871 15.7395498,11.3548875 15.9003215,10.7600322 L17.0450161,10.6281994 C17.4566238,10.5799678 17.7652733,10.232701 17.7652733,9.8211254 L17.7652733,7.90151125 C17.7652733,7.48993569 17.4565916,7.14266881 17.0450161,7.0944373 L15.9163987,6.9626045 C15.7620257,6.37418006 15.5305466,5.8114791 15.2347588,5.28414791 L15.9292926,4.40633441 C16.1865273,4.08157556 16.1575884,3.61855305 15.8681994,3.32594855 L14.5145016,1.9722508 C14.2218971,1.6796463 13.7588746,1.65392283 13.4341158,1.91115756 L12.5820257,2.58639871 C12.0289711,2.26163987 11.437299,2.01405145 10.8167524,1.84684887 L10.688135,0.743954984 C10.6399035,0.332379421 10.2926367,0.0236977492 9.88106109,0.0236977492 L7.96144695,0.0236977492 C7.54987138,0.0236977492 7.2026045,0.332379421 7.15437299,0.743954984 L7.02575563,1.84684887 C6.38909968,2.01726688 5.78138264,2.27450161 5.21546624,2.61212219 L4.33122186,1.91115756 C4.00646302,1.65392283 3.54344051,1.68286174 3.25083601,1.9722508 L1.89392283,3.32916399 C1.60131833,3.62176849 1.57559486,4.084791 1.83282958,4.40954984 L2.57237942,5.34524116 C2.27655949,5.87900322 2.0514791,6.44813505 1.90356913,7.03977492 L0.720289389,7.17482315 C0.308713826,7.22305466 3.21543408e-05,7.57032154 3.21543408e-05,7.98189711 L3.21543408e-05,9.90151125 C3.21543408e-05,10.3130868 0.308713826,10.6603537 0.720289389,10.7085852 L1.96784566,10.8533119 L1.96784566,10.8533119 Z M8.92282958,5.66038585 C10.6720257,5.66038585 12.096463,7.08482315 12.096463,8.83401929 C12.096463,10.5832154 10.6720257,12.0076527 8.92282958,12.0076527 C7.17366559,12.0076527 5.74919614,10.5832154 5.74919614,8.83401929 C5.74919614,7.08482315 7.17363344,5.66038585 8.92282958,5.66038585 L8.92282958,5.66038585 Z" id="Shape"></path>
                <path d="M27.9002894,11.3259807 L26.8874277,10.4706752 C26.5755627,10.2070096 26.1157235,10.2198714 25.8199357,10.4996141 L25.2604502,11.0237299 C24.7878135,10.7954341 24.2862058,10.6346624 23.7684887,10.5414148 L23.6109968,9.76971061 C23.5306109,9.37099678 23.160836,9.09446945 22.755627,9.12662379 L21.4340836,9.23916399 C21.0289389,9.27453376 20.7106109,9.60572347 20.6977492,10.0140836 L20.6720579,10.7986495 C20.1639871,10.9819293 19.6848875,11.2327331 19.2475884,11.5478457 L18.5788103,11.1041158 C18.23791,10.8790354 17.7845659,10.9433441 17.5209325,11.2552412 L16.665627,12.2745338 C16.4019293,12.5864309 16.414791,13.0462379 16.6945016,13.3420579 L17.2797428,13.9658199 C17.0771383,14.4224116 16.9324437,14.9015434 16.8488746,15.3934727 L16.0128617,15.5638907 C15.6141479,15.6442765 15.3376206,16.0140514 15.3697749,16.4192283 L15.4823151,17.7407717 C15.5176849,18.1459164 15.8488746,18.4642444 16.2572347,18.4771061 L17.1607717,18.5060129 C17.3248232,18.936881 17.5402251,19.3452733 17.8006431,19.7278778 L17.2958521,20.4899357 C17.0707717,20.8307717 17.1350804,21.2841479 17.4469453,21.5478135 L18.4598071,22.403119 C18.7717363,22.6667846 19.2315113,22.6539228 19.5273633,22.3741801 L20.1897428,21.7536013 C20.6238264,21.9561736 21.0803859,22.107299 21.5498392,22.1973312 L21.7331511,23.1040836 C21.813537,23.5027974 22.1833119,23.7793248 22.5884566,23.7471704 L23.91,23.6346302 C24.3151447,23.5992605 24.6334727,23.2681029 24.6463344,22.8597106 L24.6752733,21.9722186 C25.1575884,21.8018006 25.6141479,21.5702894 26.0353698,21.2841479 L26.7653055,21.766463 C27.1061415,21.9915434 27.5594855,21.9272347 27.8231833,21.6153376 L28.6784887,20.6024759 C28.9421222,20.2905788 28.9292605,19.8307717 28.6495498,19.5349518 L28.0610932,18.9111897 C28.2765595,18.4545981 28.4341479,17.972283 28.5241158,17.477074 L29.3279743,17.3130868 C29.7266881,17.232701 30.0032154,16.862926 29.9710611,16.4577492 L29.8585209,15.1362058 C29.8231511,14.7310611 29.4919614,14.4127331 29.0836013,14.3998714 L28.2765273,14.3741479 C28.1092926,13.9046945 27.8842122,13.4609968 27.6045016,13.0493891 L28.0449839,12.3870096 C28.2765273,12.0462379 28.2122186,11.5896463 27.9002894,11.3259807 L27.9002894,11.3259807 Z M22.9196463,18.9658199 C21.4919936,19.0880386 20.2314791,18.0236977 20.1125402,16.5960772 C19.9903215,15.1684244 21.0546945,13.9079421 22.482283,13.7889711 C23.9099357,13.6667846 25.1704502,14.7311254 25.2893891,16.158746 C25.4116077,17.5864309 24.3472347,18.846881 22.9196463,18.9658199 L22.9196463,18.9658199 Z" id="Shape"></path>
                <path d="M6.59163987,22.5221222 C6.18649518,22.5639228 5.87459807,22.9047267 5.87138264,23.313119 L5.86173633,24.1266238 C5.85530547,24.5349839 6.15755627,24.8822508 6.56270096,24.9337299 L7.1607717,25.0108682 C7.26045016,25.3742444 7.40192926,25.7215113 7.585209,26.0494855 L7.19935691,26.5253698 C6.94212219,26.8436656 6.96141479,27.3002894 7.24758842,27.5928939 L7.81672026,28.1748875 C8.10289389,28.467492 8.55948553,28.4996463 8.88424437,28.2488424 L9.3633119,27.8790675 C9.70093248,28.0784244 10.0578778,28.2360129 10.430836,28.3453055 L10.4951447,28.9626688 C10.5369453,29.3678135 10.8777814,29.6797106 11.2861415,29.682926 L12.0996785,29.6925723 C12.5080064,29.6990032 12.8553055,29.3967524 12.9067524,28.9916077 L12.9807074,28.4063987 C13.3858842,28.3066881 13.7717363,28.1555949 14.1382637,27.9562379 L14.5884244,28.319582 C14.9067524,28.5768167 15.3633762,28.5575241 15.6559807,28.2713505 L16.2379743,27.7022186 C16.5305788,27.4160772 16.5627331,26.9594534 16.3119614,26.6346945 L15.9678457,26.187717 C16.1800643,25.8340193 16.3440836,25.4578135 16.4566238,25.0623151 L16.9903859,25.0076527 C17.3955305,24.9658521 17.7073955,24.6250161 17.7106431,24.2166559 L17.7202572,23.403119 C17.7267203,22.994791 17.4244695,22.647492 17.0193248,22.596045 L16.4983923,22.5285209 C16.3987138,22.1362379 16.250836,21.7568167 16.05791,21.403119 L16.3826688,21.0044051 C16.6399035,20.6860772 16.6206109,20.2294855 16.3344373,19.936881 L15.7653376,19.3548875 C15.479164,19.0622508 15.022508,19.0300965 14.6977814,19.2809325 L14.3086817,19.5799678 C13.9421543,19.3581029 13.5498392,19.1876849 13.1382958,19.0719293 L13.0868167,18.5671061 C13.0450161,18.1619293 12.7042122,17.8500643 12.2958199,17.8468489 L11.4823151,17.8372026 C11.073955,17.8307717 10.7266881,18.1330225 10.675209,18.5381672 L10.6109003,19.0398071 C10.1864952,19.1490997 9.77813505,19.3163344 9.39871383,19.5349518 L8.99678457,19.2069775 C8.67845659,18.9497428 8.2218328,18.9690675 7.9292283,19.255209 L7.34401929,19.8275884 C7.05141479,20.1137299 7.01926045,20.5703537 7.27006431,20.8950804 L7.61411576,21.3388424 C7.41475884,21.6925402 7.25720257,22.0687138 7.15430868,22.4642444 L6.59163987,22.5221222 L6.59163987,22.5221222 Z M11.8424437,21.6024759 C13.0096463,21.6153376 13.9453055,22.5767846 13.9324759,23.7439871 C13.9196141,24.9111897 12.9581672,25.8468489 11.7909646,25.8340193 C10.6237621,25.8211576 9.68810289,24.8597428 9.70093248,23.692508 C9.71382637,22.5253376 10.6752412,21.5896463 11.8424437,21.6024759 L11.8424437,21.6024759 Z" id="Shape"></path>
            </g>
        </g>
    </g>
</svg>